<svg width="89" height="88" viewBox="0 0 89 88" fill="none" xmlns="http://www.w3.org/2000/svg">
  <g clip-path="url(#clip0)">
    <circle cx="44.1428" cy="44" r="44" fill="#F1F4F3"/>
  </g>
  <path fill-rule="evenodd" clip-rule="evenodd" d="M52.1102 49.5874H49.1827V60.4248H44.291V49.5874H42.9796C42.6555 49.5874 42.3928 49.3247 42.3928 49.0006V46.5219C42.3928 46.1978 42.6555 45.9351 42.9796 45.9351H44.291V43.6087C44.291 40.5617 45.5592 38.75 49.1497 38.75H52.2029C52.5269 38.75 52.7896 39.0127 52.7896 39.3368V41.799C52.7896 42.1231 52.5269 42.3858 52.2029 42.3858H50.6732C49.2732 42.3858 49.1827 42.9087 49.1827 43.8805L49.1785 45.931H51.8511C52.2004 45.931 52.4724 46.2343 52.4344 46.5815L52.1068 49.5775C52.1063 49.5811 52.1076 49.5848 52.1102 49.5874Z" fill="black"/>
  <rect x="28.3928" y="28.25" width="31.5" height="31.5" rx="8.75" stroke="#181717" stroke-width="3.5"/>
  <defs>
    <clipPath id="clip0">
      <rect width="88" height="88" fill="white" transform="translate(0.142822)"/>
    </clipPath>
  </defs>
</svg>
