<svg width="89" height="88" viewBox="0 0 89 88" fill="none" xmlns="http://www.w3.org/2000/svg">
  <g clip-path="url(#clip0)">
    <circle cx="44.5714" cy="44" r="44" fill="#F1F4F3"/>
  </g>
  <mask id="path-2-outside-1" maskUnits="userSpaceOnUse" x="26.5714" y="26" width="36" height="36" fill="black">
    <rect fill="white" x="26.5714" y="26" width="36" height="36"/>
    <path d="M30.5714 37C30.5714 33.134 33.7054 30 37.5714 30H51.5714C55.4374 30 58.5714 33.134 58.5714 37V51C58.5714 54.866 55.4374 58 51.5714 58H37.5714C33.7054 58 30.5714 54.866 30.5714 51V37Z"/>
  </mask>
  <path d="M37.5714 33.5H51.5714V26.5H37.5714V33.5ZM55.0714 37V51H62.0714V37H55.0714ZM51.5714 54.5H37.5714V61.5H51.5714V54.5ZM34.0714 51V37H27.0714V51H34.0714ZM37.5714 54.5C35.6384 54.5 34.0714 52.933 34.0714 51H27.0714C27.0714 56.799 31.7724 61.5 37.5714 61.5V54.5ZM55.0714 51C55.0714 52.933 53.5044 54.5 51.5714 54.5V61.5C57.3704 61.5 62.0714 56.799 62.0714 51H55.0714ZM51.5714 33.5C53.5044 33.5 55.0714 35.067 55.0714 37H62.0714C62.0714 31.201 57.3704 26.5 51.5714 26.5V33.5ZM37.5714 26.5C31.7724 26.5 27.0714 31.201 27.0714 37H34.0714C34.0714 35.067 35.6384 33.5 37.5714 33.5V26.5Z" fill="#181717" mask="url(#path-2-outside-1)"/>
  <circle cx="52.4464" cy="36.125" r="2.625" fill="#181717"/>
  <circle cx="44.5714" cy="44" r="5.25" fill="#181717"/>
  <defs>
    <clipPath id="clip0">
      <rect width="88" height="88" fill="white" transform="translate(0.571411)"/>
    </clipPath>
  </defs>
</svg>
