<svg width="99" height="26" viewBox="0 0 99 26" fill="none" xmlns="http://www.w3.org/2000/svg">
  <path fill-rule="evenodd" clip-rule="evenodd" d="M26.3587 3.27624C24.2937 3.27624 23.63 5.70999 23.63 7.03749L19.205 6.00499C19.2787 1.57999 22.3762 0.104993 26.3587 0.0312433C30.2419 -0.040667 33.3538 1.71044 33.5066 5.01111C33.5105 5.04577 33.5125 5.08205 33.5125 5.11998C33.5125 15.6662 34.1025 18.1 34.1025 18.1H31.1525L30.3102 16.7663C29.2769 17.7794 27.8149 18.4687 25.7687 18.4687C20.09 18.4687 18.32 16.1825 18.32 12.5687C18.32 9.1025 21.4175 8.06999 23.2612 7.70124C25.0546 7.34961 26.9182 6.96783 27.76 6.67505C28.6837 6.35377 28.94 6.10955 28.94 5.11999C28.94 4.38249 28.4237 3.27624 26.3587 3.27624ZM26.2113 10.2825C27.3325 10.1341 28.4126 9.94299 29.3825 9.66361V10.5037C29.3825 13.0112 28.5116 14.9696 25.9162 15.0762C23.7636 15.1647 23.04 13.6018 23.04 12.8637C23.04 11.61 23.5949 10.6288 26.2113 10.2825ZM11.0188 7.18584C11.0188 4.67834 10.355 3.2771 8.29004 3.2771C6.22504 3.2771 5.70879 4.23584 5.70879 4.97334C5.70879 6.30084 6.44629 6.81709 10.2075 7.55459C12.0513 7.92334 15.7388 9.39835 15.7388 12.2746C15.7388 15.8883 13.9688 18.4696 8.29004 18.4696C2.61129 18.4696 0.915039 15.0771 0.915039 11.8321L5.41379 10.5046C5.48754 13.2333 6.13654 15.1361 8.73254 15.0771C11.3285 15.0181 11.3422 13.7496 11.3138 13.0121C11.2892 12.3729 10.6205 10.9618 7.55254 10.4308C3.71754 9.76709 1.21004 8.88209 1.21004 5.41584C1.21004 1.9496 4.30754 -0.0416549 8.29004 0.0320951C12.2725 0.105845 15.37 2.02334 15.4438 6.00584L11.0188 7.18584ZM64.7087 6.44751C64.7087 5.12001 64.4875 3.42376 62.4225 3.42376C60.3575 3.42376 59.9887 4.97251 59.9887 6.59501V18.1H55.49V13.38C55.49 2.83377 54.9 0.40003 54.9 0.40003H57.85L58.8581 1.76817C59.8845 0.701881 61.0963 0.00669648 62.4225 0.0312565C64.4482 0.0687689 66.1685 0.54513 67.3798 1.58651C68.5035 0.614026 69.9366 0.00105908 71.5675 0.0312615C75.55 0.105011 78.3525 1.87501 78.4262 6.30001V18.1H73.8537V6.44751C73.8537 5.12001 73.6325 3.42376 71.5675 3.42376C69.7975 3.42376 69.2812 4.67751 69.2812 5.41501V6.30001V18.1L64.7825 18.1L64.7087 18.1V6.44751ZM43.395 25.18H39.1175L43.2535 14.2907L40.5556 13.4906L35.43 0.326274H39.9287L44.3815 11.3208L48.5575 0.326274H53.0562L43.395 25.18ZM98.3387 10.5775H86.0962C86.0962 13.675 87.822 14.7813 90.3 14.7813C93.3975 14.7813 94.2825 12.495 94.2087 11.2413L98.3387 12.4213C98.3387 15.6663 95.1968 18.6175 90.595 18.5425C85.1378 18.4536 81.5385 16.4628 81.5975 9.32377C81.5975 2.76002 84.0313 0.178774 90.3 0.178774C96.5688 0.178774 98.3387 2.90752 98.3387 10.5775ZM86.0231 7.6275C85.9985 6.22568 86.7457 3.43732 89.9312 3.49849C93.1168 3.55966 93.864 6.27665 93.8394 7.6275H86.0231Z" fill="white"/>
</svg>
