<svg width="695" height="712" viewBox="0 0 695 712" fill="none" xmlns="http://www.w3.org/2000/svg">
  <rect x="317.326" y="157.382" width="274" height="274" rx="29" transform="rotate(-15 317.326 157.382)" stroke="#181717" stroke-width="6"/>
  <rect x="66" y="279.469" width="280" height="280" rx="32" transform="rotate(-15 66 279.469)" fill="#181717"/>
  <rect x="427" y="301.377" width="246.754" height="108.022" rx="24" transform="rotate(-30 427 301.377)" fill="#181717"/>
  <rect x="34.2006" y="455.532" width="286.867" height="286.867" rx="143.433" transform="rotate(-30 34.2006 455.532)" fill="white"/>
  <rect x="34.2006" y="455.532" width="286.867" height="286.867" rx="143.433" transform="rotate(-30 34.2006 455.532)" stroke="#181717" stroke-width="6"/>
  <rect x="67.1025" y="160.5" width="321" height="636" rx="32" transform="rotate(-30 67.1025 160.5)" fill="#181717"/>
  <rect x="94.2006" y="201.435" width="315" height="511" rx="21" transform="rotate(-30 94.2006 201.435)" fill="#F1F4F3" stroke="#181717" stroke-width="6"/>
  <circle cx="345.616" cy="313.572" r="111" transform="rotate(-45 345.616 313.572)" fill="#53E0AD"/>
  <circle cx="353.772" cy="329.728" r="108" transform="rotate(-45 353.772 329.728)" stroke="#181717" stroke-width="6"/>
  <ellipse cx="322.992" cy="351.274" rx="13.0588" ry="17.4118" transform="rotate(-45 322.992 351.274)" fill="#181717"/>
  <path d="M383.013 331.267C389.813 338.066 389.813 349.091 383.013 355.891C376.214 362.69 365.189 362.69 358.389 355.891" stroke="#181717" stroke-width="4.35294" stroke-linecap="round" stroke-linejoin="round"/>
  <path d="M383.013 288.175C388.113 293.275 388.113 301.543 383.013 306.643C377.914 311.743 369.645 311.743 364.545 306.643" stroke="#181717" stroke-width="4.35294" stroke-linecap="round" stroke-linejoin="round"/>
  <rect x="231.731" y="224.31" width="39.1765" height="19.5882" transform="rotate(-45 231.731 224.31)" fill="#12100F"/>
  <rect x="237.887" y="255.09" width="74" height="10.8824" transform="rotate(-45 237.887 255.09)" fill="#12100F"/>
  <path opacity="0.2" d="M348.002 606.85L354.002 617.242" stroke="#181717" stroke-width="2" stroke-linecap="round" stroke-linejoin="round"/>
  <path opacity="0.2" d="M361.464 599.077L367.464 609.47" stroke="#181717" stroke-width="2" stroke-linecap="round" stroke-linejoin="round"/>
  <path d="M374.927 591.305L380.927 601.697" stroke="#181717" stroke-width="2" stroke-linecap="round" stroke-linejoin="round"/>
  <path opacity="0.2" d="M388.39 583.532L394.39 593.924" stroke="#181717" stroke-width="2" stroke-linecap="round" stroke-linejoin="round"/>
  <path opacity="0.2" d="M401.853 575.759L407.853 586.151" stroke="#181717" stroke-width="2" stroke-linecap="round" stroke-linejoin="round"/>
  <path opacity="0.2" d="M415.315 567.986L421.315 578.379" stroke="#181717" stroke-width="2" stroke-linecap="round" stroke-linejoin="round"/>
  <path opacity="0.2" d="M428.778 560.214L434.778 570.606" stroke="#181717" stroke-width="2" stroke-linecap="round" stroke-linejoin="round"/>
  <path opacity="0.2" d="M442.241 552.441L448.241 562.833" stroke="#181717" stroke-width="2" stroke-linecap="round" stroke-linejoin="round"/>
  <path opacity="0.2" d="M455.704 544.668L461.704 555.06" stroke="#181717" stroke-width="2" stroke-linecap="round" stroke-linejoin="round"/>
  <path d="M469.167 536.895L475.167 547.288" stroke="#181717" stroke-width="2" stroke-linecap="round" stroke-linejoin="round"/>
  <path opacity="0.2" d="M482.629 529.123L488.629 539.515" stroke="#181717" stroke-width="2" stroke-linecap="round" stroke-linejoin="round"/>
  <path opacity="0.2" d="M496.092 521.35L502.092 531.742" stroke="#181717" stroke-width="2" stroke-linecap="round" stroke-linejoin="round"/>
  <path opacity="0.2" d="M509.555 513.577L515.555 523.97" stroke="#181717" stroke-width="2" stroke-linecap="round" stroke-linejoin="round"/>
  <path opacity="0.2" d="M523.018 505.805L529.018 516.197" stroke="#181717" stroke-width="2" stroke-linecap="round" stroke-linejoin="round"/>
  <path opacity="0.2" d="M536.48 498.032L542.48 508.424" stroke="#181717" stroke-width="2" stroke-linecap="round" stroke-linejoin="round"/>
  <path opacity="0.2" d="M549.943 490.259L555.943 500.651" stroke="#181717" stroke-width="2" stroke-linecap="round" stroke-linejoin="round"/>
  <path d="M563.406 482.486L569.406 492.879" stroke="#181717" stroke-width="2" stroke-linecap="round" stroke-linejoin="round"/>
  <path opacity="0.2" d="M576.869 474.714L582.869 485.106" stroke="#181717" stroke-width="2" stroke-linecap="round" stroke-linejoin="round"/>
  <path opacity="0.2" d="M590.331 466.941L596.331 477.333" stroke="#181717" stroke-width="2" stroke-linecap="round" stroke-linejoin="round"/>
  <rect x="407.918" y="486.81" width="56" height="56" rx="28" transform="rotate(-30 407.918 486.81)" stroke="#181717" stroke-width="6"/>
  <rect width="244.524" height="52.4381" rx="24" transform="matrix(0.866025 -0.5 -0.5 -0.866025 412.477 678.23)" fill="#53E0AD"/>
  <path fill-rule="evenodd" clip-rule="evenodd" d="M117.976 164.615C120.461 168.919 118.986 174.424 114.681 176.909C110.377 179.394 104.872 177.919 102.387 173.615C99.9019 169.31 101.377 163.806 105.681 161.32C109.986 158.835 115.49 160.31 117.976 164.615ZM338.812 37.1147C341.297 41.4194 339.823 46.9237 335.518 49.409C331.213 51.8942 325.709 50.4194 323.224 46.1147C320.738 41.8101 322.213 36.3058 326.518 33.8205C330.823 31.3352 336.327 32.8101 338.812 37.1147ZM253.54 79.4186C250.67 81.0754 249.687 84.745 251.344 87.6147C253 90.4845 256.67 91.4677 259.54 89.8109L302.841 64.8109C305.711 63.154 306.694 59.4845 305.037 56.6147C303.38 53.745 299.711 52.7617 296.841 54.4186L253.54 79.4186Z" fill="#F1F4F3"/>
  <circle cx="550.841" cy="135.912" r="21.1651" transform="rotate(-30 550.841 135.912)" fill="#181717"/>
  <rect x="3" y="246" width="203" height="74" rx="29" fill="white"/>
  <rect x="3" y="246" width="203" height="74" rx="29" stroke="#181717" stroke-width="6"/>
  <rect x="14" y="257" width="98" height="52" rx="26" fill="#181717"/>
  <rect x="181.449" y="540.796" width="149.544" height="18.7295" rx="9.36475" transform="rotate(-165 181.449 540.796)" fill="#181717"/>
</svg>
