<svg width="88" height="88" viewBox="0 0 88 88" fill="none" xmlns="http://www.w3.org/2000/svg">
  <circle cx="44" cy="44" r="44" fill="#F1F4F3"/>
  <path fill-rule="evenodd" clip-rule="evenodd" d="M61.0511 35.184C61.2962 34.3667 61.0511 33.7946 59.9068 33.7946H56.0926C55.1119 33.7946 54.676 34.3122 54.4308 34.8843C54.4308 34.8843 52.4964 39.6248 49.7448 42.6761C48.8458 43.5751 48.4643 43.8476 47.9739 43.8476C47.7288 43.8476 47.3746 43.5751 47.3746 42.7578V35.184C47.3746 34.2032 47.1021 33.7946 46.2848 33.7946H40.2911C39.6918 33.7946 39.3104 34.2577 39.3104 34.6664C39.3104 35.5927 40.6726 35.8106 40.836 38.3715V43.9838C40.836 45.2098 40.6181 45.4277 40.1277 45.4277C38.8472 45.4277 35.6869 40.6873 33.8343 35.2385C33.4529 34.2305 33.0987 33.7946 32.118 33.7946H28.3038C27.214 33.7946 26.9961 34.3122 26.9961 34.8843C26.9961 35.8923 28.2766 40.9052 33.017 47.5255C36.1773 52.048 40.6181 54.5 44.6502 54.5C47.0749 54.5 47.3746 53.9551 47.3746 53.0288V49.5961C47.3746 48.5063 47.5925 48.2883 48.3826 48.2883C48.9547 48.2883 49.9083 48.5608 52.1695 50.7403C54.7577 53.3285 55.1936 54.5 56.6375 54.5H60.4517C61.5414 54.5 62.0863 53.9551 61.7594 52.8926C61.4052 51.8301 60.1792 50.2772 58.5446 48.4246C57.6456 47.3621 56.3106 46.245 55.9292 45.6729C55.3571 44.9373 55.5205 44.6104 55.9292 43.9838C55.9292 43.9566 60.5879 37.418 61.0511 35.184Z" fill="#12100F"/>
</svg>
